<svg width="429" height="425" viewBox="0 0 429 425" fill="none" xmlns="http://www.w3.org/2000/svg">
<g filter="url(#filter0_di)">
<path d="M338.345 372.215C317.026 364.858 288.209 369.085 286.842 369.948C289.73 378.874 288.943 391.213 285.517 402.817C285.517 402.817 304.954 407.592 315.155 410.5C325.357 413.408 343.283 414.498 350.756 410.5C366.835 401.897 359.664 379.572 338.345 372.215Z" fill="url(#paint0_linear)"/>
</g>
<g filter="url(#filter1_b)">
<path d="M338.345 372.215C317.026 364.858 288.209 369.085 286.842 369.948C289.73 378.874 288.942 391.213 285.516 402.817C285.516 402.817 304.953 407.592 315.155 410.5C325.356 413.408 343.282 414.498 350.755 410.5C366.835 401.897 359.664 379.572 338.345 372.215Z" fill="url(#paint1_linear)" fill-opacity="0.1"/>
</g>
<g filter="url(#filter2_di)">
<path d="M234.053 326.725H268.258C277.451 340.198 283.341 358.045 287.084 370.486C290.827 382.928 287.826 400.842 286.007 403.156C284.188 405.47 280.851 407.325 273.362 408.654C265.873 409.982 241.057 406.445 241.057 406.445C241.057 406.445 248.967 394.839 251.6 380.583C254.232 366.327 245.175 341.836 234.053 326.725Z" fill="url(#paint2_linear)"/>
</g>
<g filter="url(#filter3_b)">
<path d="M234.053 326.844H268.258C277.451 340.317 283.341 358.164 287.084 370.605C290.827 383.046 287.826 400.961 286.007 403.275C284.188 405.589 280.851 407.444 273.362 408.772C265.873 410.101 241.057 406.564 241.057 406.564C241.057 406.564 248.967 394.957 251.6 380.702C254.232 366.446 245.175 341.954 234.053 326.844Z" fill="url(#paint3_linear)" fill-opacity="0.1"/>
</g>
<g filter="url(#filter4_d)">
<path d="M197.258 394.429L197.998 406.579C215.539 408.807 225 408.721 241.286 406.579C241.286 406.579 250.105 393.255 252.873 378.965C255.641 364.675 246.117 340.124 234.423 324.977C216.65 351.87 208.21 367.057 197.258 394.429Z" fill="url(#paint4_linear)"/>
</g>
<g filter="url(#filter5_b)">
<path d="M197.258 394.429L197.998 406.579C215.539 408.807 225 408.721 241.286 406.579C241.286 406.579 250.105 393.255 252.873 378.965C255.641 364.675 246.117 340.124 234.423 324.977C216.65 351.87 208.21 367.057 197.258 394.429Z" fill="url(#paint5_linear)" fill-opacity="0.1"/>
</g>
<path d="M198.466 395.472C173.081 376.788 161.935 353.386 152.181 315.645L233.811 326.187C216.909 353.015 208.881 368.165 198.466 395.472Z" fill="url(#paint6_linear)"/>
<g filter="url(#filter6_b)">
<path d="M198.466 395.472C173.081 376.788 161.935 353.386 152.181 315.645L233.811 326.187C216.909 353.016 208.881 368.166 198.466 395.472Z" fill="url(#paint7_linear)" fill-opacity="0.1"/>
</g>
<path d="M231.017 69.3643L251.204 73.5205C281.598 39.5883 299.237 28.7987 326.994 26.8938C330.957 26.6219 334.872 27.9488 337.906 30.5116C365.361 53.7007 373.109 74.7223 373.511 120.425C398.024 159.506 400.741 187.981 385.98 250.452L389.542 275.389L382.418 269.452C382.418 269.452 368.662 300.675 330.908 318.078C293.154 335.481 195.186 323.817 195.186 323.817C195.186 323.817 127.663 319.091 86.8109 288.705C45.9592 258.32 43.9335 213.417 43.9335 213.417H33.4674C41.3451 205.531 44.1397 200.782 46.6344 191.809C57.2846 115.772 75.9299 85.4373 131.863 53.3336C144.273 25.8158 155.553 14.0367 178.647 3.92621C183.855 1.64649 189.904 2.42438 194.387 5.91951C217.312 23.7936 226.137 39.8757 231.017 69.3643Z" fill="url(#paint8_linear)"/>
<g filter="url(#filter7_b)">
<path d="M231.017 68.8728L251.204 73.029C281.598 39.0967 299.237 28.3071 326.994 26.4023C330.957 26.1303 334.872 27.4573 337.906 30.02C365.361 53.2092 373.109 74.2307 373.511 119.934C398.024 159.014 400.741 187.49 385.98 249.961L389.542 274.898L382.418 268.96C382.418 268.96 368.662 300.183 330.908 317.586C293.154 334.989 195.186 323.326 195.186 323.326C195.186 323.326 127.663 318.599 86.8109 288.214C45.9592 257.828 43.9335 212.925 43.9335 212.925H33.4674C41.3451 205.039 44.1397 200.291 46.6344 191.318C57.2846 115.28 75.9299 84.9457 131.863 52.842C144.273 25.3242 155.553 13.5451 178.647 3.43463C183.855 1.15491 189.904 1.93281 194.387 5.42793C217.312 23.3021 226.137 39.3841 231.017 68.8728Z" fill="url(#paint9_linear)" fill-opacity="0.1"/>
</g>
<path d="M187.629 7.67499C196.246 26.9854 198.475 41.1393 197.856 62.0945C197.856 62.0945 178.435 59.1014 165.424 57.7555C152.414 56.4095 132.301 54.9753 132.301 54.9753C132.301 54.9753 137.582 37.4764 152.292 22.1094C162.082 11.8824 173.452 6.63069 179.963 4.26171C183.03 3.14564 186.299 4.69427 187.629 7.67499Z" fill="url(#paint10_linear)"/>
<path d="M334.045 31.4675C359.08 56.7197 361.935 69.4503 363.28 112.714C363.28 112.714 323.429 85.9985 310.418 84.6526C297.408 83.3067 253.249 74.4063 253.249 74.4063C253.249 74.4063 264.543 60.0846 285.268 43.7838C300.807 31.5623 318.767 29.0558 326.782 28.5667C329.51 28.4003 332.122 29.5269 334.045 31.4675Z" fill="url(#paint11_linear)"/>
<path d="M231.017 68.7049L251.204 72.8716C287.424 75.383 300.461 79.1173 319.83 85.8391C336.065 91.4731 348.139 98.1623 373.511 119.895C398.024 159.075 400.741 187.623 385.98 250.253L389.542 275.253L382.418 269.3C382.418 269.3 368.662 300.603 330.908 318.05C293.154 335.497 195.186 323.804 195.186 323.804C195.186 323.804 127.663 319.065 86.8109 288.602C45.9592 258.14 43.9335 213.123 43.9335 213.123H33.4674C41.3451 205.217 44.1397 200.456 46.6344 191.461C57.0868 116.646 75.1547 86.9192 128.696 55.4161C130.698 54.2381 132.991 53.5751 135.313 53.5852C149.626 53.6473 164.033 56.3431 185.309 59.511C202.543 62.077 209.822 62.7568 231.017 68.7049Z" fill="url(#paint12_linear)"/>
<path d="M79.5283 283.348C36.433 248.646 186.04 233.946 186.04 233.946C186.04 233.946 368.4 300.604 330.645 318.051C292.891 335.498 194.923 323.805 194.923 323.805C194.923 323.805 122.624 318.051 79.5283 283.348Z" fill="url(#paint13_linear)"/>
<path d="M194.923 321.801C194.923 321.801 122.624 316.047 79.5283 281.345C60.3266 265.883 79.3816 254.392 106.414 246.403L288.556 275.111C322.072 291.712 346.993 308.492 330.645 316.047C292.891 333.494 194.923 321.801 194.923 321.801Z" fill="url(#paint14_linear)"/>
<path d="M106.414 246.403C140.051 236.461 186.04 231.943 186.04 231.943C186.04 231.943 244.668 253.373 288.556 275.111L106.414 246.403Z" fill="url(#paint15_linear)"/>
<g filter="url(#filter8_b)">
<path d="M231.017 68.7072L251.204 72.874C287.424 75.3853 300.461 79.1197 319.831 85.8415C336.066 91.4755 348.14 98.1647 373.512 119.898C398.024 159.078 400.742 187.626 385.981 250.256L389.543 275.256L382.419 269.303C382.419 269.303 368.663 300.606 330.909 318.053C293.154 335.5 195.187 323.807 195.187 323.807C195.187 323.807 127.663 319.068 86.8115 288.605C45.9598 258.143 43.9341 213.126 43.9341 213.126L33.468 213.126C41.3457 205.22 44.1403 200.459 46.6351 191.463C57.0874 116.649 75.1553 86.9216 128.696 55.4184C130.698 54.2404 132.991 53.5774 135.314 53.5875C149.626 53.6496 164.033 56.3454 185.31 59.5134C202.544 62.0794 209.823 62.7591 231.017 68.7072Z" fill="url(#paint16_linear)" fill-opacity="0.03"/>
</g>
<ellipse rx="91.5614" ry="100.643" transform="matrix(-0.97251 -0.232862 -0.217176 0.976133 289.798 193.907)" fill="#471636"/>
<g filter="url(#filter9_ii)">
<ellipse rx="89.6742" ry="94.9297" transform="matrix(-0.97251 -0.232862 -0.217176 0.976133 289.3 198.104)" fill="url(#paint17_linear)"/>
</g>
<g filter="url(#filter10_dii)">
<ellipse rx="74.1607" ry="78.4286" transform="matrix(-0.97251 -0.232862 -0.217176 0.976133 291.651 194.46)" fill="url(#paint18_linear)"/>
</g>
<g filter="url(#filter11_ddd)">
<ellipse rx="57.1264" ry="57.1343" transform="matrix(-0.97251 -0.232862 -0.217176 0.976133 290.417 193.133)" fill="#471636"/>
</g>
<path d="M70.6237 157.784C65.8388 212.475 82.6547 258.622 118.778 261.782C154.9 264.942 192.688 223.573 197.473 168.882C202.258 114.191 193.004 71.6868 151.56 65.5662C115.438 62.4058 75.4085 103.093 70.6237 157.784Z" fill="#471636"/>
<g filter="url(#filter12_ii)">
<path d="M71.8329 162.568C67.3396 213.926 83.8277 257.321 118.966 260.395C154.104 263.469 190.73 224.721 195.224 173.363C199.717 122.005 190.24 81.0429 148.463 76.0246C113.325 72.9505 76.3261 111.21 71.8329 162.568Z" fill="url(#paint19_linear)"/>
</g>
<g filter="url(#filter13_di)">
<path d="M92.778 173.716C88.8824 218.244 110.141 236.773 129.344 241.376C158.799 246.388 186.07 229.941 194.402 182.607C198.794 135.003 198.148 102.547 158.798 96.5043C123.66 93.4302 96.6737 129.189 92.778 173.716Z" fill="url(#paint20_linear)"/>
</g>
<g filter="url(#filter14_d)">
<path d="M109.99 176.959C107.132 209.627 126.767 223.851 140.843 226.95C165.242 232.323 188.22 222.241 194.196 184.2C199.572 142.996 196.337 125.498 164.043 120.803C134.908 118.254 112.848 144.291 109.99 176.959Z" fill="#471636"/>
</g>
<path d="M199.618 269.085C200.028 268.92 200.228 268.455 200.063 268.044C199.899 267.634 199.433 267.435 199.023 267.6L199.618 269.085ZM164.969 260.084C164.708 259.728 164.207 259.651 163.851 259.912C163.495 260.174 163.418 260.675 163.679 261.031L164.969 260.084ZM184.494 249.19L180.742 265.41L182.301 265.77L186.053 249.55L184.494 249.19ZM181.165 266.306C186.774 269.101 191.345 269.818 194.544 269.821C196.141 269.823 197.391 269.646 198.25 269.466C198.68 269.375 199.013 269.284 199.242 269.213C199.357 269.178 199.446 269.148 199.509 269.125C199.541 269.114 199.565 269.105 199.584 269.098C199.593 269.095 199.6 269.092 199.606 269.09C199.609 269.088 199.611 269.087 199.613 269.087C199.614 269.086 199.615 269.086 199.616 269.086C199.617 269.085 199.617 269.085 199.617 269.085C199.618 269.085 199.618 269.085 199.321 268.342C199.023 267.6 199.023 267.599 199.024 267.599C199.024 267.599 199.024 267.599 199.024 267.599C199.025 267.599 199.025 267.599 199.025 267.599C199.026 267.598 199.026 267.598 199.025 267.599C199.024 267.599 199.022 267.6 199.018 267.601C199.01 267.605 198.995 267.61 198.974 267.618C198.932 267.632 198.864 267.656 198.771 267.684C198.586 267.741 198.301 267.82 197.921 267.9C197.162 268.059 196.024 268.222 194.546 268.221C191.594 268.218 187.266 267.559 181.879 264.874L181.165 266.306ZM181.53 264.79C174.825 264.726 170.645 263.486 168.168 262.303C166.929 261.711 166.111 261.131 165.613 260.713C165.364 260.504 165.194 260.334 165.091 260.223C165.039 260.168 165.004 260.127 164.985 260.103C164.975 260.091 164.969 260.083 164.966 260.08C164.965 260.078 164.964 260.078 164.965 260.079C164.965 260.079 164.966 260.08 164.966 260.08C164.967 260.081 164.967 260.081 164.967 260.082C164.968 260.082 164.968 260.083 164.968 260.083C164.969 260.084 164.969 260.084 164.324 260.557C163.679 261.031 163.679 261.031 163.68 261.032C163.68 261.032 163.681 261.033 163.681 261.033C163.682 261.034 163.682 261.035 163.683 261.036C163.685 261.038 163.686 261.041 163.688 261.043C163.692 261.049 163.697 261.055 163.703 261.063C163.715 261.078 163.731 261.098 163.751 261.122C163.79 261.17 163.846 261.234 163.919 261.313C164.066 261.471 164.284 261.686 164.584 261.938C165.186 262.443 166.118 263.097 167.478 263.747C170.2 265.047 174.618 266.324 181.514 266.39L181.53 264.79Z" fill="#471636"/>
<path d="M188.462 249.849C186.35 251.285 183.452 250.403 182.5 248.033L179.947 241.68C178.702 238.583 181.575 235.414 184.779 236.349L193.099 238.778C196.345 239.725 197.024 244.022 194.229 245.924L188.462 249.849Z" fill="#D1845B"/>
<path d="M298.063 147.612C298.063 153.499 303.322 158.271 309.81 158.271C316.298 158.271 321.557 153.499 321.557 147.612C321.557 141.725 316.354 134.915 308.94 134.915C299.269 134.915 298.063 141.725 298.063 147.612Z" fill="white"/>
<path d="M159.495 124.253C159.495 130.14 164.754 134.912 171.242 134.912C177.73 134.912 182.989 130.14 182.989 124.253C182.989 118.366 177.786 111.555 170.372 111.555C160.701 111.555 159.495 118.366 159.495 124.253Z" fill="white"/>
<ellipse rx="3.99948" ry="3.546" transform="matrix(-1 0 0 1 316.106 170.616)" fill="white"/>
<ellipse rx="3.99948" ry="3.546" transform="matrix(-1 0 0 1 178.99 146.59)" fill="white"/>
<path d="M376.438 158.132C384.841 156.366 388.265 154.012 391.941 147.11" stroke="#471636" stroke-width="8" stroke-linecap="round" stroke-linejoin="round"/>
<path d="M188.507 68.8384C192.931 68.2725 193.804 68.2129 197.953 69.1683" stroke="#471636" stroke-width="8" stroke-linecap="round" stroke-linejoin="round"/>
<path d="M253.249 80.563C257.543 81.7709 258.369 82.0568 261.815 84.5577" stroke="#471636" stroke-width="8" stroke-linecap="round" stroke-linejoin="round"/>
<path d="M345.388 294.909C367.545 306.961 372.843 311.011 387.753 325.031" stroke="#471636" stroke-width="8" stroke-linecap="round" stroke-linejoin="round"/>
<path d="M332.806 306.543C354.963 318.595 360.261 322.644 375.171 336.664" stroke="#471636" stroke-width="8" stroke-linecap="round" stroke-linejoin="round"/>
<path d="M64.9585 253.737C42.8013 265.789 37.5033 269.839 22.5935 283.859" stroke="#471636" stroke-width="8" stroke-linecap="round" stroke-linejoin="round"/>
<path d="M75.833 266.357C53.6758 278.409 48.3778 282.458 33.468 296.478" stroke="#471636" stroke-width="8" stroke-linecap="round" stroke-linejoin="round"/>
<path d="M381.687 175.258C390.09 173.491 393.514 171.137 397.19 164.236" stroke="#471636" stroke-width="8" stroke-linecap="round" stroke-linejoin="round"/>
<path d="M79.704 118.317C74.658 114.547 71.0694 110.248 69.2432 104.799" stroke="#471636" stroke-width="8" stroke-linecap="round" stroke-linejoin="round"/>
<path d="M85.3611 107.879C80.6752 104.097 77.4807 99.8904 76.1333 94.6941" stroke="#471636" stroke-width="8" stroke-linecap="round" stroke-linejoin="round"/>
<g filter="url(#filter15_d)">
<path d="M221.546 332.587C216.284 329.595 210.316 327.192 200.288 329.139C190.26 331.086 179.319 345.933 179.319 345.933C179.319 345.933 174.26 337.677 166.977 332.699C159.693 327.722 147.985 325.658 137.478 333.906C126.971 342.155 126.21 357.833 129.781 369.186C133.21 380.085 152.585 403.95 172.554 416.712C174.115 417.71 176.05 417.852 177.743 417.102C183.297 414.64 196.37 408.341 206.657 399.464C220.254 387.731 230.776 377.05 232.595 361.465C234.414 345.881 226.808 335.58 221.546 332.587Z" fill="url(#paint21_linear)"/>
</g>
<g filter="url(#filter16_b)">
<path d="M221.546 332.587C216.284 329.595 210.316 327.192 200.288 329.139C190.26 331.086 179.319 345.933 179.319 345.933C179.319 345.933 174.26 337.677 166.977 332.699C159.693 327.722 147.985 325.658 137.478 333.906C126.971 342.155 126.21 357.833 129.781 369.186C133.21 380.085 152.585 403.95 172.554 416.712C174.115 417.71 176.05 417.852 177.743 417.102C183.297 414.64 196.37 408.341 206.657 399.464C220.254 387.731 230.776 377.05 232.595 361.465C234.414 345.881 226.808 335.58 221.546 332.587Z" fill="url(#paint22_linear)" fill-opacity="0.1"/>
</g>
<g filter="url(#filter17_f)">
<ellipse cx="209.442" cy="340.22" rx="12.6487" ry="7.04158" transform="rotate(2 209.442 340.22)" fill="url(#paint23_diamond)"/>
</g>
<g filter="url(#filter18_f)">
<ellipse cx="185.812" cy="354.876" rx="16.1181" ry="7.04158" transform="rotate(-45 185.812 354.876)" fill="url(#paint24_diamond)"/>
</g>
<g filter="url(#filter19_f)">
<ellipse cx="209.29" cy="386.266" rx="29.3513" ry="6.2091" transform="rotate(-45 209.29 386.266)" fill="url(#paint25_diamond)" fill-opacity="0.48"/>
</g>
<g filter="url(#filter20_f)">
<ellipse cx="162.48" cy="344.899" rx="21.1997" ry="11.5514" transform="rotate(42 162.48 344.899)" fill="url(#paint26_diamond)"/>
</g>
<g filter="url(#filter21_f)">
<ellipse cx="146.949" cy="370.411" rx="27.0842" ry="15.8154" transform="rotate(51 146.949 370.411)" fill="url(#paint27_diamond)"/>
</g>
<g filter="url(#filter22_d)">
<path d="M153.726 320.888C157.752 322.958 159.703 326.209 160.648 328.894C161.481 331.259 159.323 333.112 156.82 333.243L152.347 333.477C148.112 334.224 147.041 334.28 141.228 337.222C138.611 338.546 137.305 339.759 135.833 340.649C133.72 341.926 131.299 340.237 130.935 337.796C130.328 333.713 130.081 327.674 133.075 324.464C137.867 319.325 145.844 316.835 153.726 320.888Z" fill="url(#paint28_linear)"/>
</g>
<path d="M155.315 318.727C160.368 321.325 162.78 325.427 163.931 328.777C164.913 331.634 162.313 333.88 159.294 334.008C159.243 334.01 159.193 334.012 159.143 334.015L153.608 334.305C148.368 335.229 147.042 335.298 139.85 338.938C136.098 340.837 134.524 342.551 132.283 343.672C130.076 344.777 127.688 343.092 127.275 340.659C126.424 335.646 125.801 327.398 129.761 323.152C135.691 316.793 145.562 313.711 155.315 318.727Z" fill="url(#paint29_linear)"/>
<g filter="url(#filter23_b)">
<path d="M155.315 318.727C160.368 321.325 162.78 325.427 163.931 328.777C164.913 331.634 162.313 333.88 159.294 334.008C159.243 334.01 159.193 334.012 159.143 334.015L153.608 334.305C148.368 335.229 147.042 335.298 139.85 338.938C136.098 340.837 134.524 342.551 132.283 343.672C130.076 344.777 127.688 343.092 127.275 340.659C126.424 335.646 125.801 327.398 129.761 323.152C135.691 316.793 145.562 313.711 155.315 318.727Z" fill="url(#paint30_linear)" fill-opacity="0.1"/>
</g>
<defs>
<filter id="filter0_di" x="277.517" y="363.958" width="83.9999" height="57.1474" filterUnits="userSpaceOnUse" color-interpolation-filters="sRGB">
<feFlood flood-opacity="0" result="BackgroundImageFix"/>
<feColorMatrix in="SourceAlpha" type="matrix" values="0 0 0 0 0 0 0 0 0 0 0 0 0 0 0 0 0 0 127 0"/>
<feOffset dx="-3" dy="3"/>
<feGaussianBlur stdDeviation="2.5"/>
<feColorMatrix type="matrix" values="0 0 0 0 0.317647 0 0 0 0 0.129412 0 0 0 0 0.337255 0 0 0 0.79 0"/>
<feBlend mode="normal" in2="BackgroundImageFix" result="effect1_dropShadow"/>
<feBlend mode="normal" in="SourceGraphic" in2="effect1_dropShadow" result="shape"/>
<feColorMatrix in="SourceAlpha" type="matrix" values="0 0 0 0 0 0 0 0 0 0 0 0 0 0 0 0 0 0 127 0" result="hardAlpha"/>
<feOffset dx="-2" dy="-4"/>
<feGaussianBlur stdDeviation="5"/>
<feComposite in2="hardAlpha" operator="arithmetic" k2="-1" k3="1"/>
<feColorMatrix type="matrix" values="0 0 0 0 0.392157 0 0 0 0 0.188235 0 0 0 0 0.360784 0 0 0 0.41 0"/>
<feBlend mode="normal" in2="shape" result="effect2_innerShadow"/>
</filter>
<filter id="filter1_b" x="283.516" y="365.958" width="77.9999" height="49.1474" filterUnits="userSpaceOnUse" color-interpolation-filters="sRGB">
<feFlood flood-opacity="0" result="BackgroundImageFix"/>
<feGaussianBlur in="BackgroundImage" stdDeviation="1"/>
<feComposite in2="SourceAlpha" operator="in" result="effect1_backgroundBlur"/>
<feBlend mode="normal" in="SourceGraphic" in2="effect1_backgroundBlur" result="shape"/>
</filter>
<filter id="filter2_di" x="228.053" y="326.725" width="62.8229" height="90.2271" filterUnits="userSpaceOnUse" color-interpolation-filters="sRGB">
<feFlood flood-opacity="0" result="BackgroundImageFix"/>
<feColorMatrix in="SourceAlpha" type="matrix" values="0 0 0 0 0 0 0 0 0 0 0 0 0 0 0 0 0 0 127 0"/>
<feOffset dx="-2" dy="4"/>
<feGaussianBlur stdDeviation="2"/>
<feColorMatrix type="matrix" values="0 0 0 0 0.317647 0 0 0 0 0.129412 0 0 0 0 0.337255 0 0 0 0.82 0"/>
<feBlend mode="normal" in2="BackgroundImageFix" result="effect1_dropShadow"/>
<feBlend mode="normal" in="SourceGraphic" in2="effect1_dropShadow" result="shape"/>
<feColorMatrix in="SourceAlpha" type="matrix" values="0 0 0 0 0 0 0 0 0 0 0 0 0 0 0 0 0 0 127 0" result="hardAlpha"/>
<feOffset dx="-1" dy="5"/>
<feGaussianBlur stdDeviation="4.5"/>
<feComposite in2="hardAlpha" operator="arithmetic" k2="-1" k3="1"/>
<feColorMatrix type="matrix" values="0 0 0 0 0.34902 0 0 0 0 0.145098 0 0 0 0 0.313726 0 0 0 0.93 0"/>
<feBlend mode="normal" in2="shape" result="effect2_innerShadow"/>
</filter>
<filter id="filter3_b" x="232.053" y="324.844" width="58.8229" height="86.2271" filterUnits="userSpaceOnUse" color-interpolation-filters="sRGB">
<feFlood flood-opacity="0" result="BackgroundImageFix"/>
<feGaussianBlur in="BackgroundImage" stdDeviation="1"/>
<feComposite in2="SourceAlpha" operator="in" result="effect1_backgroundBlur"/>
<feBlend mode="normal" in="SourceGraphic" in2="effect1_backgroundBlur" result="shape"/>
</filter>
<filter id="filter4_d" x="193.258" y="324.977" width="64.098" height="91.2413" filterUnits="userSpaceOnUse" color-interpolation-filters="sRGB">
<feFlood flood-opacity="0" result="BackgroundImageFix"/>
<feColorMatrix in="SourceAlpha" type="matrix" values="0 0 0 0 0 0 0 0 0 0 0 0 0 0 0 0 0 0 127 0"/>
<feOffset dy="4"/>
<feGaussianBlur stdDeviation="2"/>
<feColorMatrix type="matrix" values="0 0 0 0 0.317647 0 0 0 0 0.129412 0 0 0 0 0.337255 0 0 0 0.78 0"/>
<feBlend mode="normal" in2="BackgroundImageFix" result="effect1_dropShadow"/>
<feBlend mode="normal" in="SourceGraphic" in2="effect1_dropShadow" result="shape"/>
</filter>
<filter id="filter5_b" x="196.258" y="323.977" width="58.098" height="85.2413" filterUnits="userSpaceOnUse" color-interpolation-filters="sRGB">
<feFlood flood-opacity="0" result="BackgroundImageFix"/>
<feGaussianBlur in="BackgroundImage" stdDeviation="0.5"/>
<feComposite in2="SourceAlpha" operator="in" result="effect1_backgroundBlur"/>
<feBlend mode="normal" in="SourceGraphic" in2="effect1_backgroundBlur" result="shape"/>
</filter>
<filter id="filter6_b" x="149.181" y="312.645" width="87.6303" height="85.8264" filterUnits="userSpaceOnUse" color-interpolation-filters="sRGB">
<feFlood flood-opacity="0" result="BackgroundImageFix"/>
<feGaussianBlur in="BackgroundImage" stdDeviation="1.5"/>
<feComposite in2="SourceAlpha" operator="in" result="effect1_backgroundBlur"/>
<feBlend mode="normal" in="SourceGraphic" in2="effect1_backgroundBlur" result="shape"/>
</filter>
<filter id="filter7_b" x="30.4673" y="-0.858398" width="367.56" height="331.01" filterUnits="userSpaceOnUse" color-interpolation-filters="sRGB">
<feFlood flood-opacity="0" result="BackgroundImageFix"/>
<feGaussianBlur in="BackgroundImage" stdDeviation="1.5"/>
<feComposite in2="SourceAlpha" operator="in" result="effect1_backgroundBlur"/>
<feBlend mode="normal" in="SourceGraphic" in2="effect1_backgroundBlur" result="shape"/>
</filter>
<filter id="filter8_b" x="30.468" y="50.5874" width="367.56" height="280.055" filterUnits="userSpaceOnUse" color-interpolation-filters="sRGB">
<feFlood flood-opacity="0" result="BackgroundImageFix"/>
<feGaussianBlur in="BackgroundImage" stdDeviation="1.5"/>
<feComposite in2="SourceAlpha" operator="in" result="effect1_backgroundBlur"/>
<feBlend mode="normal" in="SourceGraphic" in2="effect1_backgroundBlur" result="shape"/>
</filter>
<filter id="filter9_ii" x="197.667" y="101.095" width="181.266" height="196.017" filterUnits="userSpaceOnUse" color-interpolation-filters="sRGB">
<feFlood flood-opacity="0" result="BackgroundImageFix"/>
<feBlend mode="normal" in="SourceGraphic" in2="BackgroundImageFix" result="shape"/>
<feColorMatrix in="SourceAlpha" type="matrix" values="0 0 0 0 0 0 0 0 0 0 0 0 0 0 0 0 0 0 127 0" result="hardAlpha"/>
<feOffset dx="-2" dy="-2"/>
<feGaussianBlur stdDeviation="5"/>
<feComposite in2="hardAlpha" operator="arithmetic" k2="-1" k3="1"/>
<feColorMatrix type="matrix" values="0 0 0 0 1 0 0 0 0 1 0 0 0 0 1 0 0 0 1 0"/>
<feBlend mode="normal" in2="shape" result="effect1_innerShadow"/>
<feColorMatrix in="SourceAlpha" type="matrix" values="0 0 0 0 0 0 0 0 0 0 0 0 0 0 0 0 0 0 127 0" result="hardAlpha"/>
<feOffset dy="4"/>
<feGaussianBlur stdDeviation="2.5"/>
<feComposite in2="hardAlpha" operator="arithmetic" k2="-1" k3="1"/>
<feColorMatrix type="matrix" values="0 0 0 0 0.241306 0 0 0 0 0.0731944 0 0 0 0 0.283333 0 0 0 1 0"/>
<feBlend mode="normal" in2="effect1_innerShadow" result="effect2_innerShadow"/>
</filter>
<filter id="filter10_dii" x="208.528" y="108.963" width="166.245" height="174.995" filterUnits="userSpaceOnUse" color-interpolation-filters="sRGB">
<feFlood flood-opacity="0" result="BackgroundImageFix"/>
<feColorMatrix in="SourceAlpha" type="matrix" values="0 0 0 0 0 0 0 0 0 0 0 0 0 0 0 0 0 0 127 0"/>
<feOffset dy="2"/>
<feGaussianBlur stdDeviation="4.5"/>
<feColorMatrix type="matrix" values="0 0 0 0 1 0 0 0 0 1 0 0 0 0 1 0 0 0 1 0"/>
<feBlend mode="normal" in2="BackgroundImageFix" result="effect1_dropShadow"/>
<feBlend mode="normal" in="SourceGraphic" in2="effect1_dropShadow" result="shape"/>
<feColorMatrix in="SourceAlpha" type="matrix" values="0 0 0 0 0 0 0 0 0 0 0 0 0 0 0 0 0 0 127 0" result="hardAlpha"/>
<feOffset dx="-1" dy="11"/>
<feGaussianBlur stdDeviation="5"/>
<feComposite in2="hardAlpha" operator="arithmetic" k2="-1" k3="1"/>
<feColorMatrix type="matrix" values="0 0 0 0 0.425 0 0 0 0 0.223125 0 0 0 0 0.295438 0 0 0 1 0"/>
<feBlend mode="normal" in2="shape" result="effect2_innerShadow"/>
<feColorMatrix in="SourceAlpha" type="matrix" values="0 0 0 0 0 0 0 0 0 0 0 0 0 0 0 0 0 0 127 0" result="hardAlpha"/>
<feOffset dx="-5" dy="9"/>
<feGaussianBlur stdDeviation="5"/>
<feComposite in2="hardAlpha" operator="arithmetic" k2="-1" k3="1"/>
<feColorMatrix type="matrix" values="0 0 0 0 0.423529 0 0 0 0 0.223529 0 0 0 0 0.294118 0 0 0 1 0"/>
<feBlend mode="normal" in2="effect2_innerShadow" result="effect3_innerShadow"/>
</filter>
<filter id="filter11_ddd" x="221.48" y="130.784" width="135.874" height="133.696" filterUnits="userSpaceOnUse" color-interpolation-filters="sRGB">
<feFlood flood-opacity="0" result="BackgroundImageFix"/>
<feColorMatrix in="SourceAlpha" type="matrix" values="0 0 0 0 0 0 0 0 0 0 0 0 0 0 0 0 0 0 127 0"/>
<feOffset dx="5" dy="9"/>
<feGaussianBlur stdDeviation="2.5"/>
<feColorMatrix type="matrix" values="0 0 0 0 0.7625 0 0 0 0 0.485413 0 0 0 0 0.409844 0 0 0 1 0"/>
<feBlend mode="normal" in2="BackgroundImageFix" result="effect1_dropShadow"/>
<feColorMatrix in="SourceAlpha" type="matrix" values="0 0 0 0 0 0 0 0 0 0 0 0 0 0 0 0 0 0 127 0"/>
<feOffset dx="-7" dy="6"/>
<feGaussianBlur stdDeviation="2.5"/>
<feColorMatrix type="matrix" values="0 0 0 0 0.816667 0 0 0 0 0.509382 0 0 0 0 0.353889 0 0 0 1 0"/>
<feBlend mode="normal" in2="effect1_dropShadow" result="effect2_dropShadow"/>
<feColorMatrix in="SourceAlpha" type="matrix" values="0 0 0 0 0 0 0 0 0 0 0 0 0 0 0 0 0 0 127 0"/>
<feOffset/>
<feGaussianBlur stdDeviation="2.5"/>
<feColorMatrix type="matrix" values="0 0 0 0 0.8875 0 0 0 0 0.592044 0 0 0 0 0.388281 0 0 0 1 0"/>
<feBlend mode="normal" in2="effect2_dropShadow" result="effect3_dropShadow"/>
<feBlend mode="normal" in="SourceGraphic" in2="effect3_dropShadow" result="shape"/>
</filter>
<filter id="filter12_ii" x="68.1084" y="70.8517" width="134.133" height="193.714" filterUnits="userSpaceOnUse" color-interpolation-filters="sRGB">
<feFlood flood-opacity="0" result="BackgroundImageFix"/>
<feBlend mode="normal" in="SourceGraphic" in2="BackgroundImageFix" result="shape"/>
<feColorMatrix in="SourceAlpha" type="matrix" values="0 0 0 0 0 0 0 0 0 0 0 0 0 0 0 0 0 0 127 0" result="hardAlpha"/>
<feOffset dx="-3" dy="4"/>
<feGaussianBlur stdDeviation="2.5"/>
<feComposite in2="hardAlpha" operator="arithmetic" k2="-1" k3="1"/>
<feColorMatrix type="matrix" values="0 0 0 0 0.243137 0 0 0 0 0.0745098 0 0 0 0 0.282353 0 0 0 1 0"/>
<feBlend mode="normal" in2="shape" result="effect1_innerShadow"/>
<feColorMatrix in="SourceAlpha" type="matrix" values="0 0 0 0 0 0 0 0 0 0 0 0 0 0 0 0 0 0 127 0" result="hardAlpha"/>
<feOffset dx="6" dy="-5"/>
<feGaussianBlur stdDeviation="5"/>
<feComposite in2="hardAlpha" operator="arithmetic" k2="-1" k3="1"/>
<feColorMatrix type="matrix" values="0 0 0 0 1 0 0 0 0 1 0 0 0 0 1 0 0 0 1 0"/>
<feBlend mode="normal" in2="effect1_innerShadow" result="effect2_innerShadow"/>
</filter>
<filter id="filter13_di" x="78.312" y="87.3199" width="121.916" height="166.92" filterUnits="userSpaceOnUse" color-interpolation-filters="sRGB">
<feFlood flood-opacity="0" result="BackgroundImageFix"/>
<feColorMatrix in="SourceAlpha" type="matrix" values="0 0 0 0 0 0 0 0 0 0 0 0 0 0 0 0 0 0 127 0"/>
<feOffset dx="-5"/>
<feGaussianBlur stdDeviation="4.5"/>
<feColorMatrix type="matrix" values="0 0 0 0 1 0 0 0 0 1 0 0 0 0 1 0 0 0 0.82 0"/>
<feBlend mode="normal" in2="BackgroundImageFix" result="effect1_dropShadow"/>
<feBlend mode="normal" in="SourceGraphic" in2="effect1_dropShadow" result="shape"/>
<feColorMatrix in="SourceAlpha" type="matrix" values="0 0 0 0 0 0 0 0 0 0 0 0 0 0 0 0 0 0 127 0" result="hardAlpha"/>
<feOffset dx="2" dy="12"/>
<feGaussianBlur stdDeviation="6"/>
<feComposite in2="hardAlpha" operator="arithmetic" k2="-1" k3="1"/>
<feColorMatrix type="matrix" values="0 0 0 0 0.423529 0 0 0 0 0.223529 0 0 0 0 0.294118 0 0 0 1 0"/>
<feBlend mode="normal" in2="shape" result="effect2_innerShadow"/>
</filter>
<filter id="filter14_d" x="94.7097" y="115.631" width="104.587" height="125.66" filterUnits="userSpaceOnUse" color-interpolation-filters="sRGB">
<feFlood flood-opacity="0" result="BackgroundImageFix"/>
<feColorMatrix in="SourceAlpha" type="matrix" values="0 0 0 0 0 0 0 0 0 0 0 0 0 0 0 0 0 0 127 0"/>
<feOffset dx="-6" dy="4"/>
<feGaussianBlur stdDeviation="4.5"/>
<feColorMatrix type="matrix" values="0 0 0 0 0.886275 0 0 0 0 0.592157 0 0 0 0 0.388235 0 0 0 1 0"/>
<feBlend mode="normal" in2="BackgroundImageFix" result="effect1_dropShadow"/>
<feBlend mode="normal" in="SourceGraphic" in2="effect1_dropShadow" result="shape"/>
</filter>
<filter id="filter15_d" x="124.854" y="325.338" width="115.016" height="99.2398" filterUnits="userSpaceOnUse" color-interpolation-filters="sRGB">
<feFlood flood-opacity="0" result="BackgroundImageFix"/>
<feColorMatrix in="SourceAlpha" type="matrix" values="0 0 0 0 0 0 0 0 0 0 0 0 0 0 0 0 0 0 127 0"/>
<feOffset dx="2" dy="2"/>
<feGaussianBlur stdDeviation="2.5"/>
<feColorMatrix type="matrix" values="0 0 0 0 0.470833 0 0 0 0 0.170677 0 0 0 0 0.242715 0 0 0 0.9 0"/>
<feBlend mode="normal" in2="BackgroundImageFix" result="effect1_dropShadow"/>
<feBlend mode="normal" in="SourceGraphic" in2="effect1_dropShadow" result="shape"/>
</filter>
<filter id="filter16_b" x="122.759" y="322.686" width="114.093" height="99.8222" filterUnits="userSpaceOnUse" color-interpolation-filters="sRGB">
<feFlood flood-opacity="0" result="BackgroundImageFix"/>
<feGaussianBlur in="BackgroundImage" stdDeviation="1.5"/>
<feComposite in2="SourceAlpha" operator="in" result="effect1_backgroundBlur"/>
<feBlend mode="normal" in="SourceGraphic" in2="effect1_backgroundBlur" result="shape"/>
</filter>
<filter id="filter17_f" x="189.798" y="326.168" width="39.2869" height="28.1027" filterUnits="userSpaceOnUse" color-interpolation-filters="sRGB">
<feFlood flood-opacity="0" result="BackgroundImageFix"/>
<feBlend mode="normal" in="SourceGraphic" in2="BackgroundImageFix" result="shape"/>
<feGaussianBlur stdDeviation="3.5" result="effect1_foregroundBlur"/>
</filter>
<filter id="filter18_f" x="166.372" y="335.436" width="38.8811" height="38.8811" filterUnits="userSpaceOnUse" color-interpolation-filters="sRGB">
<feFlood flood-opacity="0" result="BackgroundImageFix"/>
<feBlend mode="normal" in="SourceGraphic" in2="BackgroundImageFix" result="shape"/>
<feGaussianBlur stdDeviation="3.5" result="effect1_foregroundBlur"/>
</filter>
<filter id="filter19_f" x="181.072" y="358.048" width="56.4362" height="56.4362" filterUnits="userSpaceOnUse" color-interpolation-filters="sRGB">
<feFlood flood-opacity="0" result="BackgroundImageFix"/>
<feBlend mode="normal" in="SourceGraphic" in2="BackgroundImageFix" result="shape"/>
<feGaussianBlur stdDeviation="3.5" result="effect1_foregroundBlur"/>
</filter>
<filter id="filter20_f" x="137.928" y="321.316" width="49.1047" height="47.1661" filterUnits="userSpaceOnUse" color-interpolation-filters="sRGB">
<feFlood flood-opacity="0" result="BackgroundImageFix"/>
<feBlend mode="normal" in="SourceGraphic" in2="BackgroundImageFix" result="shape"/>
<feGaussianBlur stdDeviation="3.5" result="effect1_foregroundBlur"/>
</filter>
<filter id="filter21_f" x="118.933" y="340.123" width="56.031" height="60.5769" filterUnits="userSpaceOnUse" color-interpolation-filters="sRGB">
<feFlood flood-opacity="0" result="BackgroundImageFix"/>
<feBlend mode="normal" in="SourceGraphic" in2="BackgroundImageFix" result="shape"/>
<feGaussianBlur stdDeviation="3.5" result="effect1_foregroundBlur"/>
</filter>
<filter id="filter22_d" x="125.554" y="315.87" width="44.2764" height="36.2168" filterUnits="userSpaceOnUse" color-interpolation-filters="sRGB">
<feFlood flood-opacity="0" result="BackgroundImageFix"/>
<feColorMatrix in="SourceAlpha" type="matrix" values="0 0 0 0 0 0 0 0 0 0 0 0 0 0 0 0 0 0 127 0"/>
<feOffset dx="2" dy="4"/>
<feGaussianBlur stdDeviation="3.5"/>
<feColorMatrix type="matrix" values="0 0 0 0 0.433333 0 0 0 0 0.046139 0 0 0 0 0.0433334 0 0 0 1 0"/>
<feBlend mode="normal" in2="BackgroundImageFix" result="effect1_dropShadow"/>
<feBlend mode="normal" in="SourceGraphic" in2="effect1_dropShadow" result="shape"/>
</filter>
<filter id="filter23_b" x="123.732" y="313.256" width="43.0566" height="32.9609" filterUnits="userSpaceOnUse" color-interpolation-filters="sRGB">
<feFlood flood-opacity="0" result="BackgroundImageFix"/>
<feGaussianBlur in="BackgroundImage" stdDeviation="1"/>
<feComposite in2="SourceAlpha" operator="in" result="effect1_backgroundBlur"/>
<feBlend mode="normal" in="SourceGraphic" in2="effect1_backgroundBlur" result="shape"/>
</filter>
<linearGradient id="paint0_linear" x1="294.373" y1="376.512" x2="352.8" y2="386.332" gradientUnits="userSpaceOnUse">
<stop stop-color="#5B2752"/>
<stop offset="0.944472" stop-color="#9B5B74"/>
</linearGradient>
<linearGradient id="paint1_linear" x1="294.372" y1="376.512" x2="352.8" y2="386.332" gradientUnits="userSpaceOnUse">
<stop stop-color="#5B2752"/>
<stop offset="0.944472" stop-color="#9B5B74"/>
</linearGradient>
<linearGradient id="paint2_linear" x1="256.062" y1="316.183" x2="257.951" y2="407.819" gradientUnits="userSpaceOnUse">
<stop stop-color="#592550"/>
<stop offset="1" stop-color="#9F5E76"/>
</linearGradient>
<linearGradient id="paint3_linear" x1="256.062" y1="316.302" x2="257.951" y2="407.938" gradientUnits="userSpaceOnUse">
<stop stop-color="#592550"/>
<stop offset="1" stop-color="#9F5E76"/>
</linearGradient>
<linearGradient id="paint4_linear" x1="234.982" y1="326.852" x2="270.506" y2="402.9" gradientUnits="userSpaceOnUse">
<stop stop-color="#5A2651"/>
<stop offset="1" stop-color="#995973"/>
</linearGradient>
<linearGradient id="paint5_linear" x1="234.982" y1="326.852" x2="270.506" y2="402.9" gradientUnits="userSpaceOnUse">
<stop stop-color="#5A2651"/>
<stop offset="1" stop-color="#995973"/>
</linearGradient>
<linearGradient id="paint6_linear" x1="227.496" y1="328.084" x2="162.075" y2="346.131" gradientUnits="userSpaceOnUse">
<stop stop-color="#A45D62"/>
<stop offset="1" stop-color="#FEB985"/>
</linearGradient>
<linearGradient id="paint7_linear" x1="227.496" y1="328.084" x2="162.075" y2="346.131" gradientUnits="userSpaceOnUse">
<stop stop-color="#A45D62"/>
<stop offset="1" stop-color="#FEB985"/>
</linearGradient>
<linearGradient id="paint8_linear" x1="267.122" y1="0.491581" x2="182.606" y2="369.538" gradientUnits="userSpaceOnUse">
<stop stop-color="#9C5867"/>
<stop offset="1" stop-color="#3F1670"/>
</linearGradient>
<linearGradient id="paint9_linear" x1="267.122" y1="3.97984e-06" x2="182.606" y2="369.047" gradientUnits="userSpaceOnUse">
<stop stop-color="#9C5867"/>
<stop offset="1" stop-color="#3F1670"/>
</linearGradient>
<linearGradient id="paint10_linear" x1="176.834" y1="6.33822" x2="159.72" y2="54.9935" gradientUnits="userSpaceOnUse">
<stop stop-color="#AE645D"/>
<stop offset="1" stop-color="#97566D"/>
</linearGradient>
<linearGradient id="paint11_linear" x1="322.579" y1="32.1945" x2="305.466" y2="80.8498" gradientUnits="userSpaceOnUse">
<stop stop-color="#AE645D"/>
<stop offset="1" stop-color="#97566D"/>
</linearGradient>
<linearGradient id="paint12_linear" x1="236.541" y1="53.5841" x2="182.34" y2="369.595" gradientUnits="userSpaceOnUse">
<stop stop-color="#8D4D69"/>
<stop offset="0.177083" stop-color="#AB6776"/>
<stop offset="1" stop-color="#3F1670"/>
</linearGradient>
<linearGradient id="paint13_linear" x1="236.278" y1="53.5849" x2="189.848" y2="324.03" gradientUnits="userSpaceOnUse">
<stop stop-color="#8D4D69"/>
<stop offset="0.698173" stop-color="#794173"/>
<stop offset="1" stop-color="#EAA47D"/>
</linearGradient>
<linearGradient id="paint14_linear" x1="327.659" y1="302.615" x2="74.8855" y2="259.101" gradientUnits="userSpaceOnUse">
<stop stop-color="#683572"/>
<stop offset="0.560871" stop-color="#DB9A7D" stop-opacity="0"/>
<stop offset="1" stop-color="#693672"/>
</linearGradient>
<linearGradient id="paint15_linear" x1="327.659" y1="302.615" x2="74.8855" y2="259.101" gradientUnits="userSpaceOnUse">
<stop stop-color="#683572"/>
<stop offset="0.560871" stop-color="#DB9A7D" stop-opacity="0"/>
<stop offset="1" stop-color="#693672"/>
</linearGradient>
<linearGradient id="paint16_linear" x1="236.542" y1="53.5864" x2="182.34" y2="369.598" gradientUnits="userSpaceOnUse">
<stop stop-color="#8D4D69"/>
<stop offset="0.177083" stop-color="#AB6776"/>
<stop offset="1" stop-color="#3F1670"/>
</linearGradient>
<linearGradient id="paint17_linear" x1="65.4221" y1="5.24657" x2="125.968" y2="183.832" gradientUnits="userSpaceOnUse">
<stop stop-color="white"/>
<stop offset="1" stop-color="#BCADC2"/>
</linearGradient>
<linearGradient id="paint18_linear" x1="74.1607" y1="0" x2="74.1607" y2="156.857" gradientUnits="userSpaceOnUse">
<stop stop-color="#E0863F"/>
<stop offset="1" stop-color="#91506E"/>
</linearGradient>
<linearGradient id="paint19_linear" x1="133.508" y1="80.2607" x2="84.6849" y2="227.038" gradientUnits="userSpaceOnUse">
<stop stop-color="#FFFEFF"/>
<stop offset="1" stop-color="#BCADC2"/>
</linearGradient>
<linearGradient id="paint20_linear" x1="150.795" y1="95.8042" x2="137.993" y2="242.133" gradientUnits="userSpaceOnUse">
<stop stop-color="#DF8540"/>
<stop offset="1" stop-color="#91506E"/>
</linearGradient>
<linearGradient id="paint21_linear" x1="135.689" y1="347.948" x2="210.249" y2="395.974" gradientUnits="userSpaceOnUse">
<stop stop-color="#FF1513"/>
<stop offset="1" stop-color="#941817"/>
</linearGradient>
<linearGradient id="paint22_linear" x1="141.666" y1="332.525" x2="210.249" y2="395.974" gradientUnits="userSpaceOnUse">
<stop stop-color="#FF1513"/>
<stop offset="1" stop-color="#971F1E"/>
</linearGradient>
<radialGradient id="paint23_diamond" cx="0" cy="0" r="1" gradientUnits="userSpaceOnUse" gradientTransform="translate(209.442 340.22) rotate(90) scale(7.04158 25.2067)">
<stop stop-color="#FE6869"/>
<stop offset="1" stop-color="#B71C1B" stop-opacity="0"/>
</radialGradient>
<radialGradient id="paint24_diamond" cx="0" cy="0" r="1" gradientUnits="userSpaceOnUse" gradientTransform="translate(185.812 354.876) rotate(90) scale(7.04158 32.1207)">
<stop stop-color="#FE6869"/>
<stop offset="1" stop-color="#B71C1B" stop-opacity="0"/>
</radialGradient>
<radialGradient id="paint25_diamond" cx="0" cy="0" r="1" gradientUnits="userSpaceOnUse" gradientTransform="translate(209.29 386.266) rotate(90) scale(6.2091 58.4922)">
<stop stop-color="#FE6869"/>
<stop offset="1" stop-color="#B71C1B" stop-opacity="0"/>
</radialGradient>
<radialGradient id="paint26_diamond" cx="0" cy="0" r="1" gradientUnits="userSpaceOnUse" gradientTransform="translate(162.48 344.899) rotate(90) scale(11.5514 42.2476)">
<stop stop-color="#FE6869"/>
<stop offset="1" stop-color="#B71C1B" stop-opacity="0"/>
</radialGradient>
<radialGradient id="paint27_diamond" cx="0" cy="0" r="1" gradientUnits="userSpaceOnUse" gradientTransform="translate(146.949 370.411) rotate(90) scale(15.8154 53.9744)">
<stop stop-color="#FE6869"/>
<stop offset="1" stop-color="#B71C1B" stop-opacity="0"/>
</radialGradient>
<linearGradient id="paint28_linear" x1="140.271" y1="320.068" x2="146.456" y2="334.943" gradientUnits="userSpaceOnUse">
<stop stop-color="#9E5E75"/>
<stop offset="1" stop-color="#592550"/>
</linearGradient>
<linearGradient id="paint29_linear" x1="138.665" y1="317.711" x2="146.319" y2="336.118" gradientUnits="userSpaceOnUse">
<stop stop-color="#9E5E75"/>
<stop offset="1" stop-color="#592550"/>
</linearGradient>
<linearGradient id="paint30_linear" x1="138.665" y1="317.711" x2="146.319" y2="336.118" gradientUnits="userSpaceOnUse">
<stop stop-color="#9E5E75"/>
<stop offset="1" stop-color="#592550"/>
</linearGradient>
</defs>
</svg>
